<?xml version="1.0" encoding="UTF-8" standalone="no"?><svg xmlns="http://www.w3.org/2000/svg" xmlns:xlink="http://www.w3.org/1999/xlink" contentScriptType="application/ecmascript" contentStyleType="text/css" height="934px" preserveAspectRatio="none" style="width:1771px;height:934px;" version="1.1" viewBox="0 0 1771 934" width="1771px" zoomAndPan="magnify"><defs><filter height="300%" id="fqihderyytp56" width="300%" x="-1" y="-1"><feGaussianBlur result="blurOut" stdDeviation="2.0"/><feColorMatrix in="blurOut" result="blurOut2" type="matrix" values="0 0 0 0 0 0 0 0 0 0 0 0 0 0 0 0 0 0 .4 0"/><feOffset dx="4.0" dy="4.0" in="blurOut2" result="blurOut3"/><feBlend in="SourceGraphic" in2="blurOut3" mode="normal"/></filter></defs><g><!--class CatalogueController--><rect fill="#FEFECE" filter="url(#fqihderyytp56)" height="89.5078" id="CatalogueController" style="stroke: #A80036; stroke-width: 1.5;" width="313" x="222" y="8"/><ellipse cx="318.75" cy="24" fill="#ADD1B2" rx="11" ry="11" style="stroke: #A80036; stroke-width: 1.0;"/><path d="M321.5156,19.875 Q321.6719,19.6563 321.8594,19.5469 Q322.0469,19.4375 322.2656,19.4375 Q322.6406,19.4375 322.875,19.6953 Q323.1094,19.9531 323.1094,20.5625 L323.1094,22.0156 Q323.1094,22.625 322.875,22.8906 Q322.6406,23.1563 322.2656,23.1563 Q321.9219,23.1563 321.7188,22.9531 Q321.5156,22.7656 321.4063,22.25 Q321.3594,21.8906 321.1719,21.7031 Q320.8438,21.3281 320.2344,21.1094 Q319.625,20.8906 319,20.8906 Q318.2344,20.8906 317.6016,21.2188 Q316.9688,21.5469 316.4766,22.2969 Q315.9844,23.0469 315.9844,24.0781 L315.9844,25.1719 Q315.9844,26.4063 316.875,27.2266 Q317.7656,28.0469 319.3594,28.0469 Q320.2969,28.0469 320.9531,27.7969 Q321.3438,27.6406 321.7656,27.2031 Q322.0313,26.9375 322.1797,26.8594 Q322.3281,26.7813 322.5313,26.7813 Q322.8594,26.7813 323.1172,27.0391 Q323.375,27.2969 323.375,27.6406 Q323.375,27.9844 323.0313,28.3906 Q322.5313,28.9688 321.7344,29.2969 Q320.6563,29.75 319.3594,29.75 Q317.8438,29.75 316.6406,29.125 Q315.6563,28.625 314.9688,27.5547 Q314.2813,26.4844 314.2813,25.2031 L314.2813,24.0469 Q314.2813,22.7188 314.8984,21.5703 Q315.5156,20.4219 316.6094,19.8047 Q317.7031,19.1875 318.9375,19.1875 Q319.6719,19.1875 320.3203,19.3516 Q320.9688,19.5156 321.5156,19.875 Z "/><text fill="#000000" font-family="sans-serif" font-size="12" lengthAdjust="spacingAndGlyphs" textLength="111" x="339.25" y="28.9102">CatalogueController</text><line style="stroke: #A80036; stroke-width: 1.5;" x1="223" x2="534" y1="40" y2="40"/><text fill="#000000" font-family="sans-serif" font-size="11" lengthAdjust="spacingAndGlyphs" textLength="178" x="228" y="55.4189">catalogueService : CatalogueService</text><text fill="#000000" font-family="sans-serif" font-size="11" lengthAdjust="spacingAndGlyphs" textLength="301" x="228" y="69.2549">appInstallationContextProvider : AppInstallationContextProvider</text><line style="stroke: #A80036; stroke-width: 1.5;" x1="223" x2="534" y1="75.6719" y2="75.6719"/><text fill="#000000" font-family="sans-serif" font-size="11" lengthAdjust="spacingAndGlyphs" textLength="285" x="228" y="91.0908">getCatalogues(String, String, String) : CataloguesResponse</text><!--class CatalogueService--><rect fill="#FEFECE" filter="url(#fqihderyytp56)" height="75.6719" id="CatalogueService" style="stroke: #A80036; stroke-width: 1.5;" width="313" x="95" y="183"/><ellipse cx="198.75" cy="199" fill="#ADD1B2" rx="11" ry="11" style="stroke: #A80036; stroke-width: 1.0;"/><path d="M201.5156,194.875 Q201.6719,194.6563 201.8594,194.5469 Q202.0469,194.4375 202.2656,194.4375 Q202.6406,194.4375 202.875,194.6953 Q203.1094,194.9531 203.1094,195.5625 L203.1094,197.0156 Q203.1094,197.625 202.875,197.8906 Q202.6406,198.1563 202.2656,198.1563 Q201.9219,198.1563 201.7188,197.9531 Q201.5156,197.7656 201.4063,197.25 Q201.3594,196.8906 201.1719,196.7031 Q200.8438,196.3281 200.2344,196.1094 Q199.625,195.8906 199,195.8906 Q198.2344,195.8906 197.6016,196.2188 Q196.9688,196.5469 196.4766,197.2969 Q195.9844,198.0469 195.9844,199.0781 L195.9844,200.1719 Q195.9844,201.4063 196.875,202.2266 Q197.7656,203.0469 199.3594,203.0469 Q200.2969,203.0469 200.9531,202.7969 Q201.3438,202.6406 201.7656,202.2031 Q202.0313,201.9375 202.1797,201.8594 Q202.3281,201.7813 202.5313,201.7813 Q202.8594,201.7813 203.1172,202.0391 Q203.375,202.2969 203.375,202.6406 Q203.375,202.9844 203.0313,203.3906 Q202.5313,203.9688 201.7344,204.2969 Q200.6563,204.75 199.3594,204.75 Q197.8438,204.75 196.6406,204.125 Q195.6563,203.625 194.9688,202.5547 Q194.2813,201.4844 194.2813,200.2031 L194.2813,199.0469 Q194.2813,197.7188 194.8984,196.5703 Q195.5156,195.4219 196.6094,194.8047 Q197.7031,194.1875 198.9375,194.1875 Q199.6719,194.1875 200.3203,194.3516 Q200.9688,194.5156 201.5156,194.875 Z "/><text fill="#000000" font-family="sans-serif" font-size="12" lengthAdjust="spacingAndGlyphs" textLength="97" x="219.25" y="203.9102">CatalogueService</text><line style="stroke: #A80036; stroke-width: 1.5;" x1="96" x2="407" y1="215" y2="215"/><text fill="#000000" font-family="sans-serif" font-size="11" lengthAdjust="spacingAndGlyphs" textLength="227" x="101" y="230.4189">instanceConfigService : InstanceConfigService</text><line style="stroke: #A80036; stroke-width: 1.5;" x1="96" x2="407" y1="236.8359" y2="236.8359"/><text fill="#000000" font-family="sans-serif" font-size="11" lengthAdjust="spacingAndGlyphs" textLength="301" x="101" y="252.2549">getCatalogueItemsForAppConfig(Repository) : List&lt;Catalogue&gt;</text><!--class CataloguesResponse--><rect fill="#FEFECE" filter="url(#fqihderyytp56)" height="61.8359" id="CataloguesResponse" style="stroke: #A80036; stroke-width: 1.5;" width="154" x="848.5" y="190"/><ellipse cx="863.5" cy="206" fill="#ADD1B2" rx="11" ry="11" style="stroke: #A80036; stroke-width: 1.0;"/><path d="M866.2656,201.875 Q866.4219,201.6563 866.6094,201.5469 Q866.7969,201.4375 867.0156,201.4375 Q867.3906,201.4375 867.625,201.6953 Q867.8594,201.9531 867.8594,202.5625 L867.8594,204.0156 Q867.8594,204.625 867.625,204.8906 Q867.3906,205.1563 867.0156,205.1563 Q866.6719,205.1563 866.4688,204.9531 Q866.2656,204.7656 866.1563,204.25 Q866.1094,203.8906 865.9219,203.7031 Q865.5938,203.3281 864.9844,203.1094 Q864.375,202.8906 863.75,202.8906 Q862.9844,202.8906 862.3516,203.2188 Q861.7188,203.5469 861.2266,204.2969 Q860.7344,205.0469 860.7344,206.0781 L860.7344,207.1719 Q860.7344,208.4063 861.625,209.2266 Q862.5156,210.0469 864.1094,210.0469 Q865.0469,210.0469 865.7031,209.7969 Q866.0938,209.6406 866.5156,209.2031 Q866.7813,208.9375 866.9297,208.8594 Q867.0781,208.7813 867.2813,208.7813 Q867.6094,208.7813 867.8672,209.0391 Q868.125,209.2969 868.125,209.6406 Q868.125,209.9844 867.7813,210.3906 Q867.2813,210.9688 866.4844,211.2969 Q865.4063,211.75 864.1094,211.75 Q862.5938,211.75 861.3906,211.125 Q860.4063,210.625 859.7188,209.5547 Q859.0313,208.4844 859.0313,207.2031 L859.0313,206.0469 Q859.0313,204.7188 859.6484,203.5703 Q860.2656,202.4219 861.3594,201.8047 Q862.4531,201.1875 863.6875,201.1875 Q864.4219,201.1875 865.0703,201.3516 Q865.7188,201.5156 866.2656,201.875 Z "/><text fill="#000000" font-family="sans-serif" font-size="12" lengthAdjust="spacingAndGlyphs" textLength="122" x="877.5" y="210.9102">CataloguesResponse</text><line style="stroke: #A80036; stroke-width: 1.5;" x1="849.5" x2="1001.5" y1="222" y2="222"/><text fill="#000000" font-family="sans-serif" font-size="11" lengthAdjust="spacingAndGlyphs" textLength="139" x="854.5" y="237.4189">catalogues : List&lt;Catalogue&gt;</text><line style="stroke: #A80036; stroke-width: 1.5;" x1="849.5" x2="1001.5" y1="243.8359" y2="243.8359"/><!--class Catalogue--><rect fill="#FEFECE" filter="url(#fqihderyytp56)" height="75.6719" id="Catalogue" style="stroke: #A80036; stroke-width: 1.5;" width="89" x="956" y="351"/><ellipse cx="971" cy="367" fill="#ADD1B2" rx="11" ry="11" style="stroke: #A80036; stroke-width: 1.0;"/><path d="M973.7656,362.875 Q973.9219,362.6563 974.1094,362.5469 Q974.2969,362.4375 974.5156,362.4375 Q974.8906,362.4375 975.125,362.6953 Q975.3594,362.9531 975.3594,363.5625 L975.3594,365.0156 Q975.3594,365.625 975.125,365.8906 Q974.8906,366.1563 974.5156,366.1563 Q974.1719,366.1563 973.9688,365.9531 Q973.7656,365.7656 973.6563,365.25 Q973.6094,364.8906 973.4219,364.7031 Q973.0938,364.3281 972.4844,364.1094 Q971.875,363.8906 971.25,363.8906 Q970.4844,363.8906 969.8516,364.2188 Q969.2188,364.5469 968.7266,365.2969 Q968.2344,366.0469 968.2344,367.0781 L968.2344,368.1719 Q968.2344,369.4063 969.125,370.2266 Q970.0156,371.0469 971.6094,371.0469 Q972.5469,371.0469 973.2031,370.7969 Q973.5938,370.6406 974.0156,370.2031 Q974.2813,369.9375 974.4297,369.8594 Q974.5781,369.7813 974.7813,369.7813 Q975.1094,369.7813 975.3672,370.0391 Q975.625,370.2969 975.625,370.6406 Q975.625,370.9844 975.2813,371.3906 Q974.7813,371.9688 973.9844,372.2969 Q972.9063,372.75 971.6094,372.75 Q970.0938,372.75 968.8906,372.125 Q967.9063,371.625 967.2188,370.5547 Q966.5313,369.4844 966.5313,368.2031 L966.5313,367.0469 Q966.5313,365.7188 967.1484,364.5703 Q967.7656,363.4219 968.8594,362.8047 Q969.9531,362.1875 971.1875,362.1875 Q971.9219,362.1875 972.5703,362.3516 Q973.2188,362.5156 973.7656,362.875 Z "/><text fill="#000000" font-family="sans-serif" font-size="12" lengthAdjust="spacingAndGlyphs" textLength="57" x="985" y="371.9102">Catalogue</text><line style="stroke: #A80036; stroke-width: 1.5;" x1="957" x2="1044" y1="383" y2="383"/><text fill="#000000" font-family="sans-serif" font-size="11" lengthAdjust="spacingAndGlyphs" textLength="59" x="962" y="398.4189">repo : String</text><text fill="#000000" font-family="sans-serif" font-size="11" lengthAdjust="spacingAndGlyphs" textLength="63" x="962" y="412.2549">name : String</text><line style="stroke: #A80036; stroke-width: 1.5;" x1="957" x2="1044" y1="418.6719" y2="418.6719"/><!--class InstanceConfig--><rect fill="#FEFECE" filter="url(#fqihderyytp56)" height="89.5078" id="InstanceConfig" style="stroke: #A80036; stroke-width: 1.5;" width="247" x="1083" y="8"/><ellipse cx="1160.75" cy="24" fill="#ADD1B2" rx="11" ry="11" style="stroke: #A80036; stroke-width: 1.0;"/><path d="M1163.5156,19.875 Q1163.6719,19.6563 1163.8594,19.5469 Q1164.0469,19.4375 1164.2656,19.4375 Q1164.6406,19.4375 1164.875,19.6953 Q1165.1094,19.9531 1165.1094,20.5625 L1165.1094,22.0156 Q1165.1094,22.625 1164.875,22.8906 Q1164.6406,23.1563 1164.2656,23.1563 Q1163.9219,23.1563 1163.7188,22.9531 Q1163.5156,22.7656 1163.4063,22.25 Q1163.3594,21.8906 1163.1719,21.7031 Q1162.8438,21.3281 1162.2344,21.1094 Q1161.625,20.8906 1161,20.8906 Q1160.2344,20.8906 1159.6016,21.2188 Q1158.9688,21.5469 1158.4766,22.2969 Q1157.9844,23.0469 1157.9844,24.0781 L1157.9844,25.1719 Q1157.9844,26.4063 1158.875,27.2266 Q1159.7656,28.0469 1161.3594,28.0469 Q1162.2969,28.0469 1162.9531,27.7969 Q1163.3438,27.6406 1163.7656,27.2031 Q1164.0313,26.9375 1164.1797,26.8594 Q1164.3281,26.7813 1164.5313,26.7813 Q1164.8594,26.7813 1165.1172,27.0391 Q1165.375,27.2969 1165.375,27.6406 Q1165.375,27.9844 1165.0313,28.3906 Q1164.5313,28.9688 1163.7344,29.2969 Q1162.6563,29.75 1161.3594,29.75 Q1159.8438,29.75 1158.6406,29.125 Q1157.6563,28.625 1156.9688,27.5547 Q1156.2813,26.4844 1156.2813,25.2031 L1156.2813,24.0469 Q1156.2813,22.7188 1156.8984,21.5703 Q1157.5156,20.4219 1158.6094,19.8047 Q1159.7031,19.1875 1160.9375,19.1875 Q1161.6719,19.1875 1162.3203,19.3516 Q1162.9688,19.5156 1163.5156,19.875 Z "/><text fill="#000000" font-family="sans-serif" font-size="12" lengthAdjust="spacingAndGlyphs" textLength="83" x="1181.25" y="28.9102">InstanceConfig</text><line style="stroke: #A80036; stroke-width: 1.5;" x1="1084" x2="1329" y1="40" y2="40"/><text fill="#000000" font-family="sans-serif" font-size="11" lengthAdjust="spacingAndGlyphs" textLength="95" x="1089" y="55.4189">installationId : String</text><text fill="#000000" font-family="sans-serif" font-size="11" lengthAdjust="spacingAndGlyphs" textLength="110" x="1089" y="69.2549">repository : Repository</text><text fill="#000000" font-family="sans-serif" font-size="11" lengthAdjust="spacingAndGlyphs" textLength="235" x="1089" y="83.0908">instanceConfigManifest : InstanceConfigManifest</text><line style="stroke: #A80036; stroke-width: 1.5;" x1="1084" x2="1329" y1="89.5078" y2="89.5078"/><!--class InstanceConfigManifest--><rect fill="#FEFECE" filter="url(#fqihderyytp56)" height="61.8359" id="InstanceConfigManifest" style="stroke: #A80036; stroke-width: 1.5;" width="161" x="1038" y="190"/><ellipse cx="1053" cy="206" fill="#ADD1B2" rx="11" ry="11" style="stroke: #A80036; stroke-width: 1.0;"/><path d="M1055.7656,201.875 Q1055.9219,201.6563 1056.1094,201.5469 Q1056.2969,201.4375 1056.5156,201.4375 Q1056.8906,201.4375 1057.125,201.6953 Q1057.3594,201.9531 1057.3594,202.5625 L1057.3594,204.0156 Q1057.3594,204.625 1057.125,204.8906 Q1056.8906,205.1563 1056.5156,205.1563 Q1056.1719,205.1563 1055.9688,204.9531 Q1055.7656,204.7656 1055.6563,204.25 Q1055.6094,203.8906 1055.4219,203.7031 Q1055.0938,203.3281 1054.4844,203.1094 Q1053.875,202.8906 1053.25,202.8906 Q1052.4844,202.8906 1051.8516,203.2188 Q1051.2188,203.5469 1050.7266,204.2969 Q1050.2344,205.0469 1050.2344,206.0781 L1050.2344,207.1719 Q1050.2344,208.4063 1051.125,209.2266 Q1052.0156,210.0469 1053.6094,210.0469 Q1054.5469,210.0469 1055.2031,209.7969 Q1055.5938,209.6406 1056.0156,209.2031 Q1056.2813,208.9375 1056.4297,208.8594 Q1056.5781,208.7813 1056.7813,208.7813 Q1057.1094,208.7813 1057.3672,209.0391 Q1057.625,209.2969 1057.625,209.6406 Q1057.625,209.9844 1057.2813,210.3906 Q1056.7813,210.9688 1055.9844,211.2969 Q1054.9063,211.75 1053.6094,211.75 Q1052.0938,211.75 1050.8906,211.125 Q1049.9063,210.625 1049.2188,209.5547 Q1048.5313,208.4844 1048.5313,207.2031 L1048.5313,206.0469 Q1048.5313,204.7188 1049.1484,203.5703 Q1049.7656,202.4219 1050.8594,201.8047 Q1051.9531,201.1875 1053.1875,201.1875 Q1053.9219,201.1875 1054.5703,201.3516 Q1055.2188,201.5156 1055.7656,201.875 Z "/><text fill="#000000" font-family="sans-serif" font-size="12" lengthAdjust="spacingAndGlyphs" textLength="129" x="1067" y="210.9102">InstanceConfigManifest</text><line style="stroke: #A80036; stroke-width: 1.5;" x1="1039" x2="1198" y1="222" y2="222"/><text fill="#000000" font-family="sans-serif" font-size="11" lengthAdjust="spacingAndGlyphs" textLength="139" x="1044" y="237.4189">catalogues : List&lt;Catalogue&gt;</text><line style="stroke: #A80036; stroke-width: 1.5;" x1="1039" x2="1198" y1="243.8359" y2="243.8359"/><!--class InstanceConfigService--><rect fill="#FEFECE" filter="url(#fqihderyytp56)" height="89.5078" id="InstanceConfigService" style="stroke: #A80036; stroke-width: 1.5;" width="313" x="95" y="344"/><ellipse cx="185.75" cy="360" fill="#ADD1B2" rx="11" ry="11" style="stroke: #A80036; stroke-width: 1.0;"/><path d="M188.5156,355.875 Q188.6719,355.6563 188.8594,355.5469 Q189.0469,355.4375 189.2656,355.4375 Q189.6406,355.4375 189.875,355.6953 Q190.1094,355.9531 190.1094,356.5625 L190.1094,358.0156 Q190.1094,358.625 189.875,358.8906 Q189.6406,359.1563 189.2656,359.1563 Q188.9219,359.1563 188.7188,358.9531 Q188.5156,358.7656 188.4063,358.25 Q188.3594,357.8906 188.1719,357.7031 Q187.8438,357.3281 187.2344,357.1094 Q186.625,356.8906 186,356.8906 Q185.2344,356.8906 184.6016,357.2188 Q183.9688,357.5469 183.4766,358.2969 Q182.9844,359.0469 182.9844,360.0781 L182.9844,361.1719 Q182.9844,362.4063 183.875,363.2266 Q184.7656,364.0469 186.3594,364.0469 Q187.2969,364.0469 187.9531,363.7969 Q188.3438,363.6406 188.7656,363.2031 Q189.0313,362.9375 189.1797,362.8594 Q189.3281,362.7813 189.5313,362.7813 Q189.8594,362.7813 190.1172,363.0391 Q190.375,363.2969 190.375,363.6406 Q190.375,363.9844 190.0313,364.3906 Q189.5313,364.9688 188.7344,365.2969 Q187.6563,365.75 186.3594,365.75 Q184.8438,365.75 183.6406,365.125 Q182.6563,364.625 181.9688,363.5547 Q181.2813,362.4844 181.2813,361.2031 L181.2813,360.0469 Q181.2813,358.7188 181.8984,357.5703 Q182.5156,356.4219 183.6094,355.8047 Q184.7031,355.1875 185.9375,355.1875 Q186.6719,355.1875 187.3203,355.3516 Q187.9688,355.5156 188.5156,355.875 Z "/><text fill="#000000" font-family="sans-serif" font-size="12" lengthAdjust="spacingAndGlyphs" textLength="123" x="206.25" y="364.9102">InstanceConfigService</text><line style="stroke: #A80036; stroke-width: 1.5;" x1="96" x2="407" y1="376" y2="376"/><text fill="#000000" font-family="sans-serif" font-size="11" lengthAdjust="spacingAndGlyphs" textLength="134" x="101" y="391.4189">restApiClient : RestApiClient</text><text fill="#000000" font-family="sans-serif" font-size="11" lengthAdjust="spacingAndGlyphs" textLength="301" x="101" y="405.2549">appInstallationContextProvider : AppInstallationContextProvider</text><line style="stroke: #A80036; stroke-width: 1.5;" x1="96" x2="407" y1="411.6719" y2="411.6719"/><text fill="#000000" font-family="sans-serif" font-size="11" lengthAdjust="spacingAndGlyphs" textLength="296" x="101" y="427.0908">getInstanceConfigForRepository(Repository) : InstanceConfig</text><!--class AccessTokenResult--><rect fill="#FEFECE" filter="url(#fqihderyytp56)" height="75.6719" id="AccessTokenResult" style="stroke: #A80036; stroke-width: 1.5;" width="187" x="972" y="848"/><ellipse cx="1007.25" cy="864" fill="#ADD1B2" rx="11" ry="11" style="stroke: #A80036; stroke-width: 1.0;"/><path d="M1010.0156,859.875 Q1010.1719,859.6563 1010.3594,859.5469 Q1010.5469,859.4375 1010.7656,859.4375 Q1011.1406,859.4375 1011.375,859.6953 Q1011.6094,859.9531 1011.6094,860.5625 L1011.6094,862.0156 Q1011.6094,862.625 1011.375,862.8906 Q1011.1406,863.1563 1010.7656,863.1563 Q1010.4219,863.1563 1010.2188,862.9531 Q1010.0156,862.7656 1009.9063,862.25 Q1009.8594,861.8906 1009.6719,861.7031 Q1009.3438,861.3281 1008.7344,861.1094 Q1008.125,860.8906 1007.5,860.8906 Q1006.7344,860.8906 1006.1016,861.2188 Q1005.4688,861.5469 1004.9766,862.2969 Q1004.4844,863.0469 1004.4844,864.0781 L1004.4844,865.1719 Q1004.4844,866.4063 1005.375,867.2266 Q1006.2656,868.0469 1007.8594,868.0469 Q1008.7969,868.0469 1009.4531,867.7969 Q1009.8438,867.6406 1010.2656,867.2031 Q1010.5313,866.9375 1010.6797,866.8594 Q1010.8281,866.7813 1011.0313,866.7813 Q1011.3594,866.7813 1011.6172,867.0391 Q1011.875,867.2969 1011.875,867.6406 Q1011.875,867.9844 1011.5313,868.3906 Q1011.0313,868.9688 1010.2344,869.2969 Q1009.1563,869.75 1007.8594,869.75 Q1006.3438,869.75 1005.1406,869.125 Q1004.1563,868.625 1003.4688,867.5547 Q1002.7813,866.4844 1002.7813,865.2031 L1002.7813,864.0469 Q1002.7813,862.7188 1003.3984,861.5703 Q1004.0156,860.4219 1005.1094,859.8047 Q1006.2031,859.1875 1007.4375,859.1875 Q1008.1719,859.1875 1008.8203,859.3516 Q1009.4688,859.5156 1010.0156,859.875 Z "/><text fill="#000000" font-family="sans-serif" font-size="12" lengthAdjust="spacingAndGlyphs" textLength="110" x="1025.75" y="868.9102">AccessTokenResult</text><line style="stroke: #A80036; stroke-width: 1.5;" x1="973" x2="1158" y1="880" y2="880"/><text fill="#000000" font-family="sans-serif" font-size="11" lengthAdjust="spacingAndGlyphs" textLength="63" x="978" y="895.4189">token : String</text><text fill="#000000" font-family="sans-serif" font-size="11" lengthAdjust="spacingAndGlyphs" textLength="175" x="978" y="909.2549">expirationDateTime : ZonedDateTime</text><line style="stroke: #A80036; stroke-width: 1.5;" x1="973" x2="1158" y1="915.6719" y2="915.6719"/><!--class AppApiClient--><rect fill="#FEFECE" filter="url(#fqihderyytp56)" height="75.6719" id="AppApiClient" style="stroke: #A80036; stroke-width: 1.5;" width="345" x="534" y="687"/><ellipse cx="667.25" cy="703" fill="#ADD1B2" rx="11" ry="11" style="stroke: #A80036; stroke-width: 1.0;"/><path d="M670.0156,698.875 Q670.1719,698.6563 670.3594,698.5469 Q670.5469,698.4375 670.7656,698.4375 Q671.1406,698.4375 671.375,698.6953 Q671.6094,698.9531 671.6094,699.5625 L671.6094,701.0156 Q671.6094,701.625 671.375,701.8906 Q671.1406,702.1563 670.7656,702.1563 Q670.4219,702.1563 670.2188,701.9531 Q670.0156,701.7656 669.9063,701.25 Q669.8594,700.8906 669.6719,700.7031 Q669.3438,700.3281 668.7344,700.1094 Q668.125,699.8906 667.5,699.8906 Q666.7344,699.8906 666.1016,700.2188 Q665.4688,700.5469 664.9766,701.2969 Q664.4844,702.0469 664.4844,703.0781 L664.4844,704.1719 Q664.4844,705.4063 665.375,706.2266 Q666.2656,707.0469 667.8594,707.0469 Q668.7969,707.0469 669.4531,706.7969 Q669.8438,706.6406 670.2656,706.2031 Q670.5313,705.9375 670.6797,705.8594 Q670.8281,705.7813 671.0313,705.7813 Q671.3594,705.7813 671.6172,706.0391 Q671.875,706.2969 671.875,706.6406 Q671.875,706.9844 671.5313,707.3906 Q671.0313,707.9688 670.2344,708.2969 Q669.1563,708.75 667.8594,708.75 Q666.3438,708.75 665.1406,708.125 Q664.1563,707.625 663.4688,706.5547 Q662.7813,705.4844 662.7813,704.2031 L662.7813,703.0469 Q662.7813,701.7188 663.3984,700.5703 Q664.0156,699.4219 665.1094,698.8047 Q666.2031,698.1875 667.4375,698.1875 Q668.1719,698.1875 668.8203,698.3516 Q669.4688,698.5156 670.0156,698.875 Z "/><text fill="#000000" font-family="sans-serif" font-size="12" lengthAdjust="spacingAndGlyphs" textLength="70" x="687.75" y="707.9102">AppApiClient</text><line style="stroke: #A80036; stroke-width: 1.5;" x1="535" x2="878" y1="719" y2="719"/><text fill="#000000" font-family="sans-serif" font-size="11" lengthAdjust="spacingAndGlyphs" textLength="136" x="540" y="734.4189">restTemplate : RestTemplate</text><line style="stroke: #A80036; stroke-width: 1.5;" x1="535" x2="878" y1="740.8359" y2="740.8359"/><text fill="#000000" font-family="sans-serif" font-size="11" lengthAdjust="spacingAndGlyphs" textLength="333" x="540" y="756.2549">createNewAppInstallationAccessToken(String) : AccessTokenResult</text><!--class AppAuthenticationService--><rect fill="#FEFECE" filter="url(#fqihderyytp56)" height="89.5078" id="AppAuthenticationService" style="stroke: #A80036; stroke-width: 1.5;" width="170" x="1477.5" y="176"/><ellipse cx="1492.5" cy="192" fill="#ADD1B2" rx="11" ry="11" style="stroke: #A80036; stroke-width: 1.0;"/><path d="M1495.2656,187.875 Q1495.4219,187.6563 1495.6094,187.5469 Q1495.7969,187.4375 1496.0156,187.4375 Q1496.3906,187.4375 1496.625,187.6953 Q1496.8594,187.9531 1496.8594,188.5625 L1496.8594,190.0156 Q1496.8594,190.625 1496.625,190.8906 Q1496.3906,191.1563 1496.0156,191.1563 Q1495.6719,191.1563 1495.4688,190.9531 Q1495.2656,190.7656 1495.1563,190.25 Q1495.1094,189.8906 1494.9219,189.7031 Q1494.5938,189.3281 1493.9844,189.1094 Q1493.375,188.8906 1492.75,188.8906 Q1491.9844,188.8906 1491.3516,189.2188 Q1490.7188,189.5469 1490.2266,190.2969 Q1489.7344,191.0469 1489.7344,192.0781 L1489.7344,193.1719 Q1489.7344,194.4063 1490.625,195.2266 Q1491.5156,196.0469 1493.1094,196.0469 Q1494.0469,196.0469 1494.7031,195.7969 Q1495.0938,195.6406 1495.5156,195.2031 Q1495.7813,194.9375 1495.9297,194.8594 Q1496.0781,194.7813 1496.2813,194.7813 Q1496.6094,194.7813 1496.8672,195.0391 Q1497.125,195.2969 1497.125,195.6406 Q1497.125,195.9844 1496.7813,196.3906 Q1496.2813,196.9688 1495.4844,197.2969 Q1494.4063,197.75 1493.1094,197.75 Q1491.5938,197.75 1490.3906,197.125 Q1489.4063,196.625 1488.7188,195.5547 Q1488.0313,194.4844 1488.0313,193.2031 L1488.0313,192.0469 Q1488.0313,190.7188 1488.6484,189.5703 Q1489.2656,188.4219 1490.3594,187.8047 Q1491.4531,187.1875 1492.6875,187.1875 Q1493.4219,187.1875 1494.0703,187.3516 Q1494.7188,187.5156 1495.2656,187.875 Z "/><text fill="#000000" font-family="sans-serif" font-size="12" lengthAdjust="spacingAndGlyphs" textLength="138" x="1506.5" y="196.9102">AppAuthenticationService</text><line style="stroke: #A80036; stroke-width: 1.5;" x1="1478.5" x2="1646.5" y1="208" y2="208"/><text fill="#000000" font-family="sans-serif" font-size="11" lengthAdjust="spacingAndGlyphs" textLength="63" x="1483.5" y="223.4189">appId : String</text><text fill="#000000" font-family="sans-serif" font-size="11" lengthAdjust="spacingAndGlyphs" textLength="126" x="1483.5" y="237.2549">privateKeyFilePath : String</text><line style="stroke: #A80036; stroke-width: 1.5;" x1="1478.5" x2="1646.5" y1="243.6719" y2="243.6719"/><text fill="#000000" font-family="sans-serif" font-size="11" lengthAdjust="spacingAndGlyphs" textLength="109" x="1483.5" y="259.0908">generateJWT() : String</text><!--class AppInstallationAccessTokenStore--><rect fill="#FEFECE" filter="url(#fqihderyytp56)" height="89.5078" id="AppInstallationAccessTokenStore" style="stroke: #A80036; stroke-width: 1.5;" width="302" x="914.5" y="680"/><ellipse cx="969.25" cy="696" fill="#ADD1B2" rx="11" ry="11" style="stroke: #A80036; stroke-width: 1.0;"/><path d="M972.0156,691.875 Q972.1719,691.6563 972.3594,691.5469 Q972.5469,691.4375 972.7656,691.4375 Q973.1406,691.4375 973.375,691.6953 Q973.6094,691.9531 973.6094,692.5625 L973.6094,694.0156 Q973.6094,694.625 973.375,694.8906 Q973.1406,695.1563 972.7656,695.1563 Q972.4219,695.1563 972.2188,694.9531 Q972.0156,694.7656 971.9063,694.25 Q971.8594,693.8906 971.6719,693.7031 Q971.3438,693.3281 970.7344,693.1094 Q970.125,692.8906 969.5,692.8906 Q968.7344,692.8906 968.1016,693.2188 Q967.4688,693.5469 966.9766,694.2969 Q966.4844,695.0469 966.4844,696.0781 L966.4844,697.1719 Q966.4844,698.4063 967.375,699.2266 Q968.2656,700.0469 969.8594,700.0469 Q970.7969,700.0469 971.4531,699.7969 Q971.8438,699.6406 972.2656,699.2031 Q972.5313,698.9375 972.6797,698.8594 Q972.8281,698.7813 973.0313,698.7813 Q973.3594,698.7813 973.6172,699.0391 Q973.875,699.2969 973.875,699.6406 Q973.875,699.9844 973.5313,700.3906 Q973.0313,700.9688 972.2344,701.2969 Q971.1563,701.75 969.8594,701.75 Q968.3438,701.75 967.1406,701.125 Q966.1563,700.625 965.4688,699.5547 Q964.7813,698.4844 964.7813,697.2031 L964.7813,696.0469 Q964.7813,694.7188 965.3984,693.5703 Q966.0156,692.4219 967.1094,691.8047 Q968.2031,691.1875 969.4375,691.1875 Q970.1719,691.1875 970.8203,691.3516 Q971.4688,691.5156 972.0156,691.875 Z "/><text fill="#000000" font-family="sans-serif" font-size="12" lengthAdjust="spacingAndGlyphs" textLength="184" x="989.75" y="700.9102">AppInstallationAccessTokenStore</text><line style="stroke: #A80036; stroke-width: 1.5;" x1="915.5" x2="1215.5" y1="712" y2="712"/><text fill="#000000" font-family="sans-serif" font-size="11" lengthAdjust="spacingAndGlyphs" textLength="257" x="920.5" y="727.4189">accessTokenMap : Map&lt;String, AccessTokenResult&gt;</text><line style="stroke: #A80036; stroke-width: 1.5;" x1="915.5" x2="1215.5" y1="733.8359" y2="733.8359"/><text fill="#000000" font-family="sans-serif" font-size="11" lengthAdjust="spacingAndGlyphs" textLength="287" x="920.5" y="749.2549">putAccessTokenForInstallation(AccessTokenResult, String)</text><text fill="#000000" font-family="sans-serif" font-size="11" lengthAdjust="spacingAndGlyphs" textLength="290" x="920.5" y="763.0908">getAccessTokenForInstallation(String) : AccessTokenResult</text><!--class AppInstallationAuthenticationHeaderRequestInterceptor--><rect fill="#FEFECE" filter="url(#fqihderyytp56)" height="89.5078" id="AppInstallationAuthenticationHeaderRequestInterceptor" style="stroke: #A80036; stroke-width: 1.5;" width="395" x="526" y="344"/><ellipse cx="567.55" cy="360" fill="#ADD1B2" rx="11" ry="11" style="stroke: #A80036; stroke-width: 1.0;"/><path d="M570.3156,355.875 Q570.4719,355.6563 570.6594,355.5469 Q570.8469,355.4375 571.0656,355.4375 Q571.4406,355.4375 571.675,355.6953 Q571.9094,355.9531 571.9094,356.5625 L571.9094,358.0156 Q571.9094,358.625 571.675,358.8906 Q571.4406,359.1563 571.0656,359.1563 Q570.7219,359.1563 570.5188,358.9531 Q570.3156,358.7656 570.2063,358.25 Q570.1594,357.8906 569.9719,357.7031 Q569.6438,357.3281 569.0344,357.1094 Q568.425,356.8906 567.8,356.8906 Q567.0344,356.8906 566.4016,357.2188 Q565.7688,357.5469 565.2766,358.2969 Q564.7844,359.0469 564.7844,360.0781 L564.7844,361.1719 Q564.7844,362.4063 565.675,363.2266 Q566.5656,364.0469 568.1594,364.0469 Q569.0969,364.0469 569.7531,363.7969 Q570.1438,363.6406 570.5656,363.2031 Q570.8313,362.9375 570.9797,362.8594 Q571.1281,362.7813 571.3313,362.7813 Q571.6594,362.7813 571.9172,363.0391 Q572.175,363.2969 572.175,363.6406 Q572.175,363.9844 571.8313,364.3906 Q571.3313,364.9688 570.5344,365.2969 Q569.4563,365.75 568.1594,365.75 Q566.6438,365.75 565.4406,365.125 Q564.4563,364.625 563.7688,363.5547 Q563.0813,362.4844 563.0813,361.2031 L563.0813,360.0469 Q563.0813,358.7188 563.6984,357.5703 Q564.3156,356.4219 565.4094,355.8047 Q566.5031,355.1875 567.7375,355.1875 Q568.4719,355.1875 569.1203,355.3516 Q569.7688,355.5156 570.3156,355.875 Z "/><text fill="#000000" font-family="sans-serif" font-size="12" lengthAdjust="spacingAndGlyphs" textLength="304" x="587.45" y="364.9102">AppInstallationAuthenticationHeaderRequestInterceptor</text><line style="stroke: #A80036; stroke-width: 1.5;" x1="527" x2="920" y1="376" y2="376"/><text fill="#000000" font-family="sans-serif" font-size="11" lengthAdjust="spacingAndGlyphs" textLength="221" x="532" y="391.4189">appInstallationService : AppInstallationService</text><text fill="#000000" font-family="sans-serif" font-size="11" lengthAdjust="spacingAndGlyphs" textLength="301" x="532" y="405.2549">appInstallationContextProvider : AppInstallationContextProvider</text><line style="stroke: #A80036; stroke-width: 1.5;" x1="527" x2="920" y1="411.6719" y2="411.6719"/><text fill="#000000" font-family="sans-serif" font-size="11" lengthAdjust="spacingAndGlyphs" textLength="383" x="532" y="427.0908">intercept(HttpRequest, byte[], ClientHttpRequestExecution) : ClientHttpResponse</text><!--class AppInstallationContextProvider--><rect fill="#FEFECE" filter="url(#fqihderyytp56)" height="61.8359" id="AppInstallationContextProvider" style="stroke: #A80036; stroke-width: 1.5;" width="199" x="357" y="526"/><ellipse cx="372" cy="542" fill="#ADD1B2" rx="11" ry="11" style="stroke: #A80036; stroke-width: 1.0;"/><path d="M374.7656,537.875 Q374.9219,537.6563 375.1094,537.5469 Q375.2969,537.4375 375.5156,537.4375 Q375.8906,537.4375 376.125,537.6953 Q376.3594,537.9531 376.3594,538.5625 L376.3594,540.0156 Q376.3594,540.625 376.125,540.8906 Q375.8906,541.1563 375.5156,541.1563 Q375.1719,541.1563 374.9688,540.9531 Q374.7656,540.7656 374.6563,540.25 Q374.6094,539.8906 374.4219,539.7031 Q374.0938,539.3281 373.4844,539.1094 Q372.875,538.8906 372.25,538.8906 Q371.4844,538.8906 370.8516,539.2188 Q370.2188,539.5469 369.7266,540.2969 Q369.2344,541.0469 369.2344,542.0781 L369.2344,543.1719 Q369.2344,544.4063 370.125,545.2266 Q371.0156,546.0469 372.6094,546.0469 Q373.5469,546.0469 374.2031,545.7969 Q374.5938,545.6406 375.0156,545.2031 Q375.2813,544.9375 375.4297,544.8594 Q375.5781,544.7813 375.7813,544.7813 Q376.1094,544.7813 376.3672,545.0391 Q376.625,545.2969 376.625,545.6406 Q376.625,545.9844 376.2813,546.3906 Q375.7813,546.9688 374.9844,547.2969 Q373.9063,547.75 372.6094,547.75 Q371.0938,547.75 369.8906,547.125 Q368.9063,546.625 368.2188,545.5547 Q367.5313,544.4844 367.5313,543.2031 L367.5313,542.0469 Q367.5313,540.7188 368.1484,539.5703 Q368.7656,538.4219 369.8594,537.8047 Q370.9531,537.1875 372.1875,537.1875 Q372.9219,537.1875 373.5703,537.3516 Q374.2188,537.5156 374.7656,537.875 Z "/><text fill="#000000" font-family="sans-serif" font-size="12" lengthAdjust="spacingAndGlyphs" textLength="167" x="386" y="546.9102">AppInstallationContextProvider</text><line style="stroke: #A80036; stroke-width: 1.5;" x1="358" x2="555" y1="558" y2="558"/><text fill="#000000" font-family="sans-serif" font-size="11" lengthAdjust="spacingAndGlyphs" textLength="95" x="363" y="573.4189">installationId : String</text><line style="stroke: #A80036; stroke-width: 1.5;" x1="358" x2="555" y1="579.8359" y2="579.8359"/><!--class AppInstallationService--><rect fill="#FEFECE" filter="url(#fqihderyytp56)" height="89.5078" id="AppInstallationService" style="stroke: #A80036; stroke-width: 1.5;" width="345" x="591" y="512"/><ellipse cx="698.75" cy="528" fill="#ADD1B2" rx="11" ry="11" style="stroke: #A80036; stroke-width: 1.0;"/><path d="M701.5156,523.875 Q701.6719,523.6563 701.8594,523.5469 Q702.0469,523.4375 702.2656,523.4375 Q702.6406,523.4375 702.875,523.6953 Q703.1094,523.9531 703.1094,524.5625 L703.1094,526.0156 Q703.1094,526.625 702.875,526.8906 Q702.6406,527.1563 702.2656,527.1563 Q701.9219,527.1563 701.7188,526.9531 Q701.5156,526.7656 701.4063,526.25 Q701.3594,525.8906 701.1719,525.7031 Q700.8438,525.3281 700.2344,525.1094 Q699.625,524.8906 699,524.8906 Q698.2344,524.8906 697.6016,525.2188 Q696.9688,525.5469 696.4766,526.2969 Q695.9844,527.0469 695.9844,528.0781 L695.9844,529.1719 Q695.9844,530.4063 696.875,531.2266 Q697.7656,532.0469 699.3594,532.0469 Q700.2969,532.0469 700.9531,531.7969 Q701.3438,531.6406 701.7656,531.2031 Q702.0313,530.9375 702.1797,530.8594 Q702.3281,530.7813 702.5313,530.7813 Q702.8594,530.7813 703.1172,531.0391 Q703.375,531.2969 703.375,531.6406 Q703.375,531.9844 703.0313,532.3906 Q702.5313,532.9688 701.7344,533.2969 Q700.6563,533.75 699.3594,533.75 Q697.8438,533.75 696.6406,533.125 Q695.6563,532.625 694.9688,531.5547 Q694.2813,530.4844 694.2813,529.2031 L694.2813,528.0469 Q694.2813,526.7188 694.8984,525.5703 Q695.5156,524.4219 696.6094,523.8047 Q697.7031,523.1875 698.9375,523.1875 Q699.6719,523.1875 700.3203,523.3516 Q700.9688,523.5156 701.5156,523.875 Z "/><text fill="#000000" font-family="sans-serif" font-size="12" lengthAdjust="spacingAndGlyphs" textLength="121" x="719.25" y="532.9102">AppInstallationService</text><line style="stroke: #A80036; stroke-width: 1.5;" x1="592" x2="935" y1="544" y2="544"/><text fill="#000000" font-family="sans-serif" font-size="11" lengthAdjust="spacingAndGlyphs" textLength="131" x="597" y="559.4189">appApiClient : AppApiClient</text><text fill="#000000" font-family="sans-serif" font-size="11" lengthAdjust="spacingAndGlyphs" textLength="333" x="597" y="573.2549">appInstallationAccessTokenStore : AppInstallationAccessTokenStore</text><line style="stroke: #A80036; stroke-width: 1.5;" x1="592" x2="935" y1="579.6719" y2="579.6719"/><text fill="#000000" font-family="sans-serif" font-size="11" lengthAdjust="spacingAndGlyphs" textLength="290" x="597" y="595.0908">getAccessTokenForInstallation(String) : AccessTokenResult</text><!--class GitHubAppAuthenticationHeaderRequestInterceptor--><rect fill="#FEFECE" filter="url(#fqihderyytp56)" height="89.5078" id="GitHubAppAuthenticationHeaderRequestInterceptor" style="stroke: #A80036; stroke-width: 1.5;" width="395" x="1365" y="8"/><ellipse cx="1417.25" cy="24" fill="#ADD1B2" rx="11" ry="11" style="stroke: #A80036; stroke-width: 1.0;"/><path d="M1420.0156,19.875 Q1420.1719,19.6563 1420.3594,19.5469 Q1420.5469,19.4375 1420.7656,19.4375 Q1421.1406,19.4375 1421.375,19.6953 Q1421.6094,19.9531 1421.6094,20.5625 L1421.6094,22.0156 Q1421.6094,22.625 1421.375,22.8906 Q1421.1406,23.1563 1420.7656,23.1563 Q1420.4219,23.1563 1420.2188,22.9531 Q1420.0156,22.7656 1419.9063,22.25 Q1419.8594,21.8906 1419.6719,21.7031 Q1419.3438,21.3281 1418.7344,21.1094 Q1418.125,20.8906 1417.5,20.8906 Q1416.7344,20.8906 1416.1016,21.2188 Q1415.4688,21.5469 1414.9766,22.2969 Q1414.4844,23.0469 1414.4844,24.0781 L1414.4844,25.1719 Q1414.4844,26.4063 1415.375,27.2266 Q1416.2656,28.0469 1417.8594,28.0469 Q1418.7969,28.0469 1419.4531,27.7969 Q1419.8438,27.6406 1420.2656,27.2031 Q1420.5313,26.9375 1420.6797,26.8594 Q1420.8281,26.7813 1421.0313,26.7813 Q1421.3594,26.7813 1421.6172,27.0391 Q1421.875,27.2969 1421.875,27.6406 Q1421.875,27.9844 1421.5313,28.3906 Q1421.0313,28.9688 1420.2344,29.2969 Q1419.1563,29.75 1417.8594,29.75 Q1416.3438,29.75 1415.1406,29.125 Q1414.1563,28.625 1413.4688,27.5547 Q1412.7813,26.4844 1412.7813,25.2031 L1412.7813,24.0469 Q1412.7813,22.7188 1413.3984,21.5703 Q1414.0156,20.4219 1415.1094,19.8047 Q1416.2031,19.1875 1417.4375,19.1875 Q1418.1719,19.1875 1418.8203,19.3516 Q1419.4688,19.5156 1420.0156,19.875 Z "/><text fill="#000000" font-family="sans-serif" font-size="12" lengthAdjust="spacingAndGlyphs" textLength="282" x="1437.75" y="28.9102">GitHubAppAuthenticationHeaderRequestInterceptor</text><line style="stroke: #A80036; stroke-width: 1.5;" x1="1366" x2="1759" y1="40" y2="40"/><text fill="#000000" font-family="sans-serif" font-size="11" lengthAdjust="spacingAndGlyphs" textLength="259" x="1371" y="55.4189">appAuthenticationService : AppAuthenticationService</text><text fill="#000000" font-family="sans-serif" font-size="11" lengthAdjust="spacingAndGlyphs" textLength="73" x="1371" y="69.2549">logger : Logger</text><line style="stroke: #A80036; stroke-width: 1.5;" x1="1366" x2="1759" y1="75.6719" y2="75.6719"/><text fill="#000000" font-family="sans-serif" font-size="11" lengthAdjust="spacingAndGlyphs" textLength="383" x="1371" y="91.0908">intercept(HttpRequest, byte[], ClientHttpRequestExecution) : ClientHttpResponse</text><!--class Repository--><rect fill="#FEFECE" filter="url(#fqihderyytp56)" height="75.6719" id="Repository" style="stroke: #A80036; stroke-width: 1.5;" width="91" x="1249" y="183"/><ellipse cx="1264" cy="199" fill="#ADD1B2" rx="11" ry="11" style="stroke: #A80036; stroke-width: 1.0;"/><path d="M1266.7656,194.875 Q1266.9219,194.6563 1267.1094,194.5469 Q1267.2969,194.4375 1267.5156,194.4375 Q1267.8906,194.4375 1268.125,194.6953 Q1268.3594,194.9531 1268.3594,195.5625 L1268.3594,197.0156 Q1268.3594,197.625 1268.125,197.8906 Q1267.8906,198.1563 1267.5156,198.1563 Q1267.1719,198.1563 1266.9688,197.9531 Q1266.7656,197.7656 1266.6563,197.25 Q1266.6094,196.8906 1266.4219,196.7031 Q1266.0938,196.3281 1265.4844,196.1094 Q1264.875,195.8906 1264.25,195.8906 Q1263.4844,195.8906 1262.8516,196.2188 Q1262.2188,196.5469 1261.7266,197.2969 Q1261.2344,198.0469 1261.2344,199.0781 L1261.2344,200.1719 Q1261.2344,201.4063 1262.125,202.2266 Q1263.0156,203.0469 1264.6094,203.0469 Q1265.5469,203.0469 1266.2031,202.7969 Q1266.5938,202.6406 1267.0156,202.2031 Q1267.2813,201.9375 1267.4297,201.8594 Q1267.5781,201.7813 1267.7813,201.7813 Q1268.1094,201.7813 1268.3672,202.0391 Q1268.625,202.2969 1268.625,202.6406 Q1268.625,202.9844 1268.2813,203.3906 Q1267.7813,203.9688 1266.9844,204.2969 Q1265.9063,204.75 1264.6094,204.75 Q1263.0938,204.75 1261.8906,204.125 Q1260.9063,203.625 1260.2188,202.5547 Q1259.5313,201.4844 1259.5313,200.2031 L1259.5313,199.0469 Q1259.5313,197.7188 1260.1484,196.5703 Q1260.7656,195.4219 1261.8594,194.8047 Q1262.9531,194.1875 1264.1875,194.1875 Q1264.9219,194.1875 1265.5703,194.3516 Q1266.2188,194.5156 1266.7656,194.875 Z "/><text fill="#000000" font-family="sans-serif" font-size="12" lengthAdjust="spacingAndGlyphs" textLength="59" x="1278" y="203.9102">Repository</text><line style="stroke: #A80036; stroke-width: 1.5;" x1="1250" x2="1339" y1="215" y2="215"/><text fill="#000000" font-family="sans-serif" font-size="11" lengthAdjust="spacingAndGlyphs" textLength="69" x="1255" y="230.4189">owner : String</text><text fill="#000000" font-family="sans-serif" font-size="11" lengthAdjust="spacingAndGlyphs" textLength="63" x="1255" y="244.2549">name : String</text><line style="stroke: #A80036; stroke-width: 1.5;" x1="1250" x2="1339" y1="250.6719" y2="250.6719"/><!--class RestApiClient--><rect fill="#FEFECE" filter="url(#fqihderyytp56)" height="75.6719" id="RestApiClient" style="stroke: #A80036; stroke-width: 1.5;" width="281" x="6" y="519"/><ellipse cx="104.75" cy="535" fill="#ADD1B2" rx="11" ry="11" style="stroke: #A80036; stroke-width: 1.0;"/><path d="M107.5156,530.875 Q107.6719,530.6563 107.8594,530.5469 Q108.0469,530.4375 108.2656,530.4375 Q108.6406,530.4375 108.875,530.6953 Q109.1094,530.9531 109.1094,531.5625 L109.1094,533.0156 Q109.1094,533.625 108.875,533.8906 Q108.6406,534.1563 108.2656,534.1563 Q107.9219,534.1563 107.7188,533.9531 Q107.5156,533.7656 107.4063,533.25 Q107.3594,532.8906 107.1719,532.7031 Q106.8438,532.3281 106.2344,532.1094 Q105.625,531.8906 105,531.8906 Q104.2344,531.8906 103.6016,532.2188 Q102.9688,532.5469 102.4766,533.2969 Q101.9844,534.0469 101.9844,535.0781 L101.9844,536.1719 Q101.9844,537.4063 102.875,538.2266 Q103.7656,539.0469 105.3594,539.0469 Q106.2969,539.0469 106.9531,538.7969 Q107.3438,538.6406 107.7656,538.2031 Q108.0313,537.9375 108.1797,537.8594 Q108.3281,537.7813 108.5313,537.7813 Q108.8594,537.7813 109.1172,538.0391 Q109.375,538.2969 109.375,538.6406 Q109.375,538.9844 109.0313,539.3906 Q108.5313,539.9688 107.7344,540.2969 Q106.6563,540.75 105.3594,540.75 Q103.8438,540.75 102.6406,540.125 Q101.6563,539.625 100.9688,538.5547 Q100.2813,537.4844 100.2813,536.2031 L100.2813,535.0469 Q100.2813,533.7188 100.8984,532.5703 Q101.5156,531.4219 102.6094,530.8047 Q103.7031,530.1875 104.9375,530.1875 Q105.6719,530.1875 106.3203,530.3516 Q106.9688,530.5156 107.5156,530.875 Z "/><text fill="#000000" font-family="sans-serif" font-size="12" lengthAdjust="spacingAndGlyphs" textLength="75" x="125.25" y="539.9102">RestApiClient</text><line style="stroke: #A80036; stroke-width: 1.5;" x1="7" x2="286" y1="551" y2="551"/><text fill="#000000" font-family="sans-serif" font-size="11" lengthAdjust="spacingAndGlyphs" textLength="136" x="12" y="566.4189">restTemplate : RestTemplate</text><line style="stroke: #A80036; stroke-width: 1.5;" x1="7" x2="286" y1="572.8359" y2="572.8359"/><text fill="#000000" font-family="sans-serif" font-size="11" lengthAdjust="spacingAndGlyphs" textLength="269" x="12" y="588.2549">getRepositoryContent(Repository, String, String) : String</text><!--link CatalogueController to CatalogueService--><path d="M344.8,98.049 C325.696,123.019 301.94,154.071 283.18,178.592 " fill="none" id="CatalogueController-&gt;CatalogueService" style="stroke: #A80036; stroke-width: 1.0;"/><polygon fill="#A80036" points="279.976,182.779,288.6217,178.0618,283.0143,178.808,282.268,173.2006,279.976,182.779" style="stroke: #A80036; stroke-width: 1.0;"/><text fill="#000000" font-family="sans-serif" font-size="13" lengthAdjust="spacingAndGlyphs" textLength="98" x="320.5" y="142.4951">catalogueService</text><!--link CatalogueController to AppInstallationContextProvider--><path d="M413.038,98.247 C418.813,107.621 424.043,117.783 427.5,128 C474.588,267.165 466.326,445.994 460.057,520.726 " fill="none" id="CatalogueController-&gt;AppInstallationContextProvider" style="stroke: #A80036; stroke-width: 1.0;"/><polygon fill="#A80036" points="459.61,525.925,464.3667,517.301,460.0386,520.9434,456.3962,516.6153,459.61,525.925" style="stroke: #A80036; stroke-width: 1.0;"/><text fill="#000000" font-family="sans-serif" font-size="13" lengthAdjust="spacingAndGlyphs" textLength="174" x="463.5" y="310.4951">appInstallationContextProvider</text><!--link CatalogueService to InstanceConfigService--><path d="M251.5,259.254 C251.5,282.733 251.5,313.315 251.5,338.781 " fill="none" id="CatalogueService-&gt;InstanceConfigService" style="stroke: #A80036; stroke-width: 1.0;"/><polygon fill="#A80036" points="251.5,343.803,255.5,334.803,251.5,338.803,247.5,334.803,251.5,343.803" style="stroke: #A80036; stroke-width: 1.0;"/><text fill="#000000" font-family="sans-serif" font-size="13" lengthAdjust="spacingAndGlyphs" textLength="127" x="252.5" y="310.4951">instanceConfigService</text><!--link CataloguesResponse to Catalogue--><path d="M938.893,252.287 C946.862,270.249 957.2,293.449 966.5,314 C971.201,324.388 976.314,335.575 981.114,346.027 " fill="none" id="CataloguesResponse-&gt;Catalogue" style="stroke: #A80036; stroke-width: 1.0;"/><polygon fill="#A80036" points="983.294,350.772,983.1726,340.9239,981.2071,346.2283,975.9027,344.2629,983.294,350.772" style="stroke: #A80036; stroke-width: 1.0;"/><text fill="#000000" font-family="sans-serif" font-size="13" lengthAdjust="spacingAndGlyphs" textLength="63" x="967.5" y="310.4951">catalogues</text><text fill="#000000" font-family="sans-serif" font-size="13" lengthAdjust="spacingAndGlyphs" textLength="5" x="974.7839" y="340.0933">*</text><!--link InstanceConfig to Repository--><path d="M1237.66,98.189 C1243.91,107.816 1250.18,118.091 1255.5,128 C1263.98,143.789 1271.97,161.818 1278.48,177.707 " fill="none" id="InstanceConfig-&gt;Repository" style="stroke: #A80036; stroke-width: 1.0;"/><polygon fill="#A80036" points="1280.45,182.565,1280.7691,172.7213,1278.5684,177.9325,1273.3572,175.7318,1280.45,182.565" style="stroke: #A80036; stroke-width: 1.0;"/><text fill="#000000" font-family="sans-serif" font-size="13" lengthAdjust="spacingAndGlyphs" textLength="57" x="1265.5" y="142.4951">repository</text><!--link InstanceConfig to InstanceConfigManifest--><path d="M1133.93,98.332 C1124.88,107.013 1116.92,116.918 1111.5,128 C1102.95,145.497 1104.1,167.123 1107.66,185.011 " fill="none" id="InstanceConfig-&gt;InstanceConfigManifest" style="stroke: #A80036; stroke-width: 1.0;"/><polygon fill="#A80036" points="1108.73,189.95,1110.7501,180.3105,1107.6796,185.0616,1102.9286,181.9911,1108.73,189.95" style="stroke: #A80036; stroke-width: 1.0;"/><text fill="#000000" font-family="sans-serif" font-size="13" lengthAdjust="spacingAndGlyphs" textLength="134" x="1112.5" y="142.4951">instanceConfigManifest</text><!--link InstanceConfigManifest to Catalogue--><path d="M1097.13,252.061 C1078.33,278.51 1050.78,317.266 1029.9,346.636 " fill="none" id="InstanceConfigManifest-&gt;Catalogue" style="stroke: #A80036; stroke-width: 1.0;"/><polygon fill="#A80036" points="1026.87,350.899,1035.3388,345.8711,1029.7621,346.8203,1028.8129,341.2437,1026.87,350.899" style="stroke: #A80036; stroke-width: 1.0;"/><text fill="#000000" font-family="sans-serif" font-size="13" lengthAdjust="spacingAndGlyphs" textLength="63" x="1064.5" y="310.4951">catalogues</text><text fill="#000000" font-family="sans-serif" font-size="13" lengthAdjust="spacingAndGlyphs" textLength="5" x="1026.1218" y="340.2429">*</text><!--link InstanceConfigService to RestApiClient--><path d="M167.869,434.079 C158.093,442.689 149.487,452.639 143.5,464 C135.6,478.99 134.758,497.345 136.484,513.707 " fill="none" id="InstanceConfigService-&gt;RestApiClient" style="stroke: #A80036; stroke-width: 1.0;"/><polygon fill="#A80036" points="137.097,518.714,139.9745,509.2949,136.4898,513.751,132.0337,510.2663,137.097,518.714" style="stroke: #A80036; stroke-width: 1.0;"/><text fill="#000000" font-family="sans-serif" font-size="13" lengthAdjust="spacingAndGlyphs" textLength="74" x="144.5" y="478.4951">restApiClient</text><!--link InstanceConfigService to AppInstallationContextProvider--><path d="M245.946,434.268 C246.15,450.703 249.324,468.59 259.5,482 C271.915,498.361 311.422,514.624 351.83,527.72 " fill="none" id="InstanceConfigService-&gt;AppInstallationContextProvider" style="stroke: #A80036; stroke-width: 1.0;"/><polygon fill="#A80036" points="356.76,529.301,349.4122,522.7428,351.999,527.7735,346.9683,530.3604,356.76,529.301" style="stroke: #A80036; stroke-width: 1.0;"/><text fill="#000000" font-family="sans-serif" font-size="13" lengthAdjust="spacingAndGlyphs" textLength="174" x="260.5" y="478.4951">appInstallationContextProvider</text><!--link AppInstallationAccessTokenStore to AccessTokenResult--><path d="M1065.5,770.29 C1065.5,792.919 1065.5,820.316 1065.5,842.6602 " fill="none" id="AppInstallationAccessTokenStore-&gt;AccessTokenResult" style="stroke: #A80036; stroke-width: 1.0;"/><polygon fill="#A80036" points="1065.5,847.9316,1069.5,838.9316,1065.5,842.9316,1061.5,838.9316,1065.5,847.9316" style="stroke: #A80036; stroke-width: 1.0;"/><text fill="#000000" font-family="sans-serif" font-size="13" lengthAdjust="spacingAndGlyphs" textLength="102" x="1066.5" y="814.4951">accessTokenMap</text><!--link AppInstallationAuthenticationHeaderRequestInterceptor to AppInstallationService--><path d="M734.114,434.049 C739.516,456.467 746.1,483.789 751.665,506.884 " fill="none" id="AppInstallationAuthenticationHeaderRequestInterceptor-&gt;AppInstallationService" style="stroke: #A80036; stroke-width: 1.0;"/><polygon fill="#A80036" points="752.836,511.745,754.6164,502.0584,751.6647,506.8841,746.839,503.9325,752.836,511.745" style="stroke: #A80036; stroke-width: 1.0;"/><text fill="#000000" font-family="sans-serif" font-size="13" lengthAdjust="spacingAndGlyphs" textLength="125" x="746.5" y="478.4951">appInstallationService</text><!--link AppInstallationAuthenticationHeaderRequestInterceptor to AppInstallationContextProvider--><path d="M612.248,434.131 C593.767,443.073 575.2,453.112 558.5,464 C533.03,480.605 507.629,503.491 488.546,522.282 " fill="none" id="AppInstallationAuthenticationHeaderRequestInterceptor-&gt;AppInstallationContextProvider" style="stroke: #A80036; stroke-width: 1.0;"/><polygon fill="#A80036" points="484.816,525.983,494.0226,522.4846,488.3658,522.4618,488.3886,516.805,484.816,525.983" style="stroke: #A80036; stroke-width: 1.0;"/><text fill="#000000" font-family="sans-serif" font-size="13" lengthAdjust="spacingAndGlyphs" textLength="174" x="559.5" y="478.4951">appInstallationContextProvider</text><!--link AppInstallationService to AppApiClient--><path d="M748.375,602.049 C739.872,626.812 729.314,657.558 720.928,681.983 " fill="none" id="AppInstallationService-&gt;AppApiClient" style="stroke: #A80036; stroke-width: 1.0;"/><polygon fill="#A80036" points="719.281,686.779,725.9872,679.566,720.9049,682.0501,718.4209,676.9678,719.281,686.779" style="stroke: #A80036; stroke-width: 1.0;"/><text fill="#000000" font-family="sans-serif" font-size="13" lengthAdjust="spacingAndGlyphs" textLength="73" x="738.5" y="646.4951">appApiClient</text><!--link AppInstallationService to AppInstallationAccessTokenStore--><path d="M843.638,602.049 C885.958,625.311 937.882,653.852 980.855,677.473 " fill="none" id="AppInstallationService-&gt;AppInstallationAccessTokenStore" style="stroke: #A80036; stroke-width: 1.0;"/><polygon fill="#A80036" points="985.25,679.889,979.2901,672.0481,980.8684,677.4803,975.4362,679.0587,985.25,679.889" style="stroke: #A80036; stroke-width: 1.0;"/><text fill="#000000" font-family="sans-serif" font-size="13" lengthAdjust="spacingAndGlyphs" textLength="193" x="925.5" y="646.4951">appInstallationAccessTokenStore</text><!--link GitHubAppAuthenticationHeaderRequestInterceptor to AppAuthenticationService--><path d="M1562.5,98.049 C1562.5,120.374 1562.5,147.56 1562.5,170.594 " fill="none" id="GitHubAppAuthenticationHeaderRequestInterceptor-&gt;AppAuthenticationService" style="stroke: #A80036; stroke-width: 1.0;"/><polygon fill="#A80036" points="1562.5,175.745,1566.5,166.745,1562.5,170.745,1558.5,166.745,1562.5,175.745" style="stroke: #A80036; stroke-width: 1.0;"/><text fill="#000000" font-family="sans-serif" font-size="13" lengthAdjust="spacingAndGlyphs" textLength="146" x="1563.5" y="142.4951">appAuthenticationService</text><!--
@startuml

class "CatalogueController" {
  catalogueService : CatalogueService
  appInstallationContextProvider : AppInstallationContextProvider
  getCatalogues(String, String, String) : CataloguesResponse
}

class "CatalogueService" {
  instanceConfigService : InstanceConfigService
  getCatalogueItemsForAppConfig(Repository) : List<Catalogue>
}

class "CataloguesResponse" {
  catalogues : List<Catalogue>
}

class "Catalogue" {
  repo : String
  name : String
}

class "InstanceConfig" {
  installationId : String
  repository : Repository
  instanceConfigManifest : InstanceConfigManifest
}

class "InstanceConfigManifest" {
  catalogues : List<Catalogue>
}

class "InstanceConfigService" {
  restApiClient : RestApiClient
  appInstallationContextProvider : AppInstallationContextProvider
  getInstanceConfigForRepository(Repository) : InstanceConfig
}

class "AccessTokenResult" {
  token : String
  expirationDateTime : ZonedDateTime
}

class "AppApiClient" {
  restTemplate : RestTemplate
  createNewAppInstallationAccessToken(String) : AccessTokenResult
}

class "AppAuthenticationService" {
  appId : String
  privateKeyFilePath : String
  generateJWT() : String
}

class "AppInstallationAccessTokenStore" {
  accessTokenMap : Map<String, AccessTokenResult>
  putAccessTokenForInstallation(AccessTokenResult, String)
  getAccessTokenForInstallation(String) : AccessTokenResult
}

class "AppInstallationAuthenticationHeaderRequestInterceptor" {
  appInstallationService : AppInstallationService
  appInstallationContextProvider : AppInstallationContextProvider
  intercept(HttpRequest, byte[], ClientHttpRequestExecution) : ClientHttpResponse
}

class "AppInstallationContextProvider" {
  installationId : String
}

class "AppInstallationService" {
  appApiClient : AppApiClient
  appInstallationAccessTokenStore : AppInstallationAccessTokenStore
  getAccessTokenForInstallation(String) : AccessTokenResult
}

class "GitHubAppAuthenticationHeaderRequestInterceptor" {
  appAuthenticationService : AppAuthenticationService
  logger : Logger
  intercept(HttpRequest, byte[], ClientHttpRequestExecution) : ClientHttpResponse
}

class "Repository" {
  owner : String
  name : String
}

class "RestApiClient" {
  restTemplate : RestTemplate
  getRepositoryContent(Repository, String, String) : String
}

"CatalogueController" - -> "CatalogueService" : catalogueService
"CatalogueController" - -> "AppInstallationContextProvider" : appInstallationContextProvider
"CatalogueService" - -> "InstanceConfigService" : instanceConfigService
"CataloguesResponse" - -> "*" "Catalogue" : catalogues
"InstanceConfig" - -> "Repository" : repository
"InstanceConfig" - -> "InstanceConfigManifest" : instanceConfigManifest
"InstanceConfigManifest" - -> "*" "Catalogue" : catalogues
"InstanceConfigService" - -> "RestApiClient" : restApiClient
"InstanceConfigService" - -> "AppInstallationContextProvider" : appInstallationContextProvider
"AppInstallationAccessTokenStore" - -> "AccessTokenResult" : accessTokenMap
"AppInstallationAuthenticationHeaderRequestInterceptor" - -> "AppInstallationService" : appInstallationService
"AppInstallationAuthenticationHeaderRequestInterceptor" - -> "AppInstallationContextProvider" : appInstallationContextProvider
"AppInstallationService" - -> "AppApiClient" : appApiClient
"AppInstallationService" - -> "AppInstallationAccessTokenStore" : appInstallationAccessTokenStore
"GitHubAppAuthenticationHeaderRequestInterceptor" - -> "AppAuthenticationService" : appAuthenticationService

@enduml

PlantUML version 1.2019.09(Mon Aug 26 17:19:51 BST 2019)
(GPL source distribution)
Java Runtime: Java(TM) SE Runtime Environment
JVM: Java HotSpot(TM) 64-Bit Server VM
Java Version: 1.8.0_201-b09
Operating System: Windows 10
OS Version: 10.0
Default Encoding: Cp1252
Language: en
Country: GB
--></g></svg>